<svg xmlns="http://www.w3.org/2000/svg" width="618" height="200" viewBox="0 0 618 200">
  <defs>
    <style>
      .cls-1 {
        fill: #fff;
        fill-rule: evenodd;
      }
    </style>
  </defs>
  <path id="Deal_" data-name="Deal!" class="cls-1" d="M157,45.5l-37.168.833-2.167,13.834L129.168,65l-12.5,79.5-13,4L101.333,163h47c40,0,67-27,67-75.836C215.337,59.83,198.5,45.5,172.5,45.5H157Zm-15.667,98,12.5-78.335h15.334c13.667,0,20,10.334,20,23,0,28.668-12,55.335-37,55.335H141.335ZM305.669,95.165c0-14.5-12-23.834-31.668-23.834-27.334,0-50.168,25.668-50.168,62.5,0,19.5,13.167,30.835,33.168,30.835,17.667,0,34.334-9.5,39.168-12.834l-7-12.334c-5,2-15.5,6-25.335,6s-15.667-3.5-15.667-18C284.835,127.166,305.669,114,305.669,95.165Zm-24.167,3c0,7.5-10.167,14.167-31.335,14.667,3.334-14.667,14-22.834,23-22.834C277.835,90,281.5,92.665,281.5,98.165Zm118.832,63.168,2.167-13.167-12.834-2.5L401.334,73H386.167l-4.834,4.5a34.6,34.6,0,0,0-19.5-6.167c-25.834,0-51,21.5-51,63.168,0,16.834,9.167,30.168,23.834,30.168,21,0,34.835-24.668,35.668-26.334L364.5,163Zm-28.5-56.168s-11.167,40-27.834,40c-5,0-8.167-5-8.167-13.834,0-24.167,11-42,26.334-42a34.676,34.676,0,0,1,12.167,2Zm71.5,40.334,17.834-111.67L423.83,35.163,421.663,48.5,434.5,51.83,416.663,163l37.168-1.667L456,148Zm37.5-25.167,19.334-.833,16.334-84H491.83Zm-9.167,33c0,7.334,4.833,11.834,12.167,11.834,10.834,0,16.167-8.5,16.167-18.167,0-7.334-4.667-12-12-12C477,135,471.663,143.666,471.663,153.333Z"/>
</svg>